<?xml version="1.0" standalone="no"?>
<!DOCTYPE svg PUBLIC "-//W3C//DTD SVG 20010904//EN"
 "http://www.w3.org/TR/2001/REC-SVG-20010904/DTD/svg10.dtd">
<svg version="1.0" xmlns="http://www.w3.org/2000/svg"
 width="512.000000pt" height="512.000000pt" viewBox="0 0 512.000000 512.000000"
 preserveAspectRatio="xMidYMid meet">
<metadata>
Created by potrace 1.14, written by Peter Selinger 2001-2017
</metadata>
<g transform="translate(0.000000,512.000000) scale(0.100000,-0.100000)"
fill="#000000" stroke="none">
<path d="M657 4941 c-91 -31 -121 -88 -76 -145 22 -28 58 -34 106 -15 101 38
145 19 198 -86 41 -81 116 -71 159 21 19 40 35 59 61 71 33 16 40 16 110 -2
60 -15 80 -16 100 -7 34 16 49 56 35 97 -13 40 -79 72 -167 81 -70 7 -125 -6
-183 -45 l-44 -29 -30 23 c-17 12 -42 28 -56 35 -38 20 -157 21 -213 1z"/>
<path d="M3875 4946 c-70 -22 -104 -45 -111 -73 -9 -36 6 -75 38 -92 23 -13
34 -13 70 -3 115 34 163 20 198 -56 25 -55 55 -82 90 -81 34 0 52 15 85 76 36
68 64 86 121 80 24 -3 52 -11 63 -16 68 -37 140 14 125 89 -5 24 -17 35 -63
57 -47 24 -69 28 -136 28 -83 0 -130 -15 -174 -56 l-21 -20 -33 25 c-69 52
-169 69 -252 42z"/>
<path d="M2440 4701 c-72 -23 -106 -41 -158 -86 -57 -50 -100 -115 -128 -193
l-22 -64 -65 -22 c-129 -43 -229 -153 -268 -292 -17 -62 -20 -161 -5 -214 6
-23 1 -28 -48 -53 -134 -70 -224 -223 -224 -382 0 -125 50 -239 142 -322 161
-145 383 -150 556 -13 l35 28 33 -27 c32 -27 32 -28 32 -120 0 -84 2 -94 25
-116 31 -32 74 -32 109 0 22 21 26 32 26 82 l0 58 80 0 80 0 0 -58 c0 -48 4
-62 25 -82 33 -34 78 -33 110 1 23 24 25 35 25 117 0 88 0 90 32 117 l32 28
50 -37 c62 -46 106 -66 171 -81 231 -52 466 112 508 353 14 82 0 182 -37 262
-31 68 -131 171 -194 199 -39 18 -43 22 -36 45 23 88 9 206 -35 296 -52 104
-172 203 -273 224 -27 6 -33 13 -54 75 -12 37 -30 76 -38 85 -9 10 -16 22 -16
28 0 16 -107 111 -149 132 -98 50 -223 62 -321 32z m235 -171 c86 -42 155
-150 155 -245 0 -17 9 -41 20 -52 18 -20 30 -24 111 -38 164 -26 261 -220 190
-380 -40 -90 -20 -132 73 -154 62 -15 93 -32 131 -69 105 -103 109 -283 9
-386 -74 -76 -182 -103 -281 -69 -44 15 -110 72 -159 138 -16 23 -29 28 -59
28 -32 0 -43 -5 -60 -29 -11 -16 -41 -50 -67 -76 -111 -111 -288 -98 -384 27
-51 66 -62 75 -99 75 -26 0 -42 -7 -58 -26 -110 -127 -160 -155 -265 -149
-134 7 -234 107 -248 248 -12 125 69 246 187 281 29 9 57 16 63 16 21 0 56 44
56 70 0 15 -10 49 -21 76 -54 120 -17 257 89 335 36 26 135 62 145 52 9 -9 47
8 67 30 11 11 20 35 20 52 0 17 7 55 16 85 20 67 98 149 164 172 59 21 148 15
205 -12z"/>
<path d="M940 4386 c-110 -32 -198 -111 -245 -218 -18 -41 -35 -68 -45 -68
-32 0 -118 -49 -162 -92 -25 -25 -58 -72 -74 -104 -26 -52 -29 -70 -29 -151
l0 -91 -52 -31 c-60 -37 -113 -97 -145 -167 -18 -39 -23 -67 -23 -139 0 -82 3
-97 33 -157 99 -201 358 -269 542 -142 27 19 51 30 53 26 3 -4 5 -50 6 -102 2
-104 14 -135 56 -146 35 -9 85 14 96 43 5 13 9 45 9 71 l0 47 80 0 80 0 0 -58
c0 -48 4 -62 25 -82 28 -29 54 -31 95 -10 17 9 31 17 31 18 1 1 4 52 8 112 l6
110 44 6 c48 6 80 37 81 77 0 27 -52 107 -80 122 -38 20 -61 10 -123 -54 -69
-72 -119 -93 -195 -82 -42 6 -122 43 -122 56 0 4 -17 25 -38 48 -56 61 -79 57
-155 -22 -71 -72 -114 -91 -188 -83 -105 13 -173 79 -186 183 -12 104 67 201
179 219 41 6 78 44 78 79 0 11 -8 35 -17 51 -10 19 -17 55 -17 97 -1 58 3 71
29 109 35 49 98 85 165 93 56 7 90 42 90 92 0 74 74 163 154 185 44 12 117 4
156 -16 59 -31 110 -112 110 -174 0 -40 38 -82 75 -86 62 -5 97 -18 141 -51
50 -38 79 -47 109 -31 53 28 60 88 16 135 -34 35 -100 75 -152 91 -29 9 -38
19 -47 49 -27 89 -113 181 -207 222 -62 27 -181 35 -245 16z"/>
<path d="M3961 4380 c-101 -37 -174 -102 -217 -194 -13 -28 -24 -56 -24 -63 0
-6 -17 -17 -37 -24 -61 -19 -105 -44 -145 -82 -50 -47 -52 -93 -8 -130 25 -22
35 -24 62 -17 17 5 41 18 52 29 33 30 77 48 131 55 64 8 90 36 98 105 12 102
90 172 197 177 63 3 112 -15 154 -54 35 -34 65 -97 66 -139 0 -50 35 -83 95
-89 145 -16 229 -149 176 -282 -12 -29 -21 -61 -21 -72 0 -30 42 -69 80 -75
86 -15 165 -91 176 -171 18 -132 -98 -247 -232 -230 -60 7 -81 19 -145 87 -75
79 -91 79 -174 -5 -70 -72 -116 -92 -192 -81 -64 8 -95 27 -144 85 -66 78
-106 79 -164 3 -43 -56 -45 -94 -9 -129 19 -20 33 -25 59 -22 43 5 45 0 45
-108 0 -105 15 -140 64 -149 23 -5 42 -2 59 10 29 18 37 41 37 105 l0 45 80 0
80 0 0 -56 c0 -87 52 -129 118 -95 39 20 42 30 42 147 0 54 3 99 7 99 3 0 20
-10 37 -23 131 -98 318 -98 448 -2 56 41 113 123 133 189 22 73 14 179 -19
249 -31 65 -104 144 -155 169 l-34 16 -1 94 c-1 81 -5 101 -29 150 -46 93
-131 166 -229 198 -21 6 -38 17 -38 24 0 31 -64 138 -106 176 -96 89 -255 123
-373 80z"/>
<path d="M183 2613 c-25 -28 -25 -28 -19 -162 3 -73 10 -161 15 -195 6 -33 13
-81 16 -106 9 -65 59 -262 91 -355 202 -601 635 -1095 1209 -1383 182 -92 444
-182 600 -207 11 -2 47 -8 80 -14 201 -36 582 -36 768 0 28 5 68 12 87 15 159
26 476 137 626 220 62 34 163 91 189 107 48 30 216 155 275 206 188 162 363
366 490 576 149 244 281 594 315 835 3 25 10 73 16 107 5 34 12 116 15 183 7
134 -2 175 -43 191 -15 5 -972 9 -2364 9 l-2340 0 -26 -27z m4611 -205 c-11
-172 -54 -391 -111 -558 -236 -697 -805 -1242 -1508 -1443 -222 -63 -375 -83
-645 -81 -264 1 -537 50 -745 133 -346 139 -574 287 -810 525 -389 392 -617
894 -649 1429 l-4 67 2238 0 2238 0 -4 -72z"/>
<path d="M1732 2292 c-27 -29 -29 -35 -21 -79 15 -92 66 -218 130 -318 76
-121 94 -171 94 -265 0 -64 -5 -95 -19 -124 -30 -60 -89 -114 -164 -149 -62
-29 -75 -32 -167 -32 -87 1 -108 4 -164 29 -125 54 -260 65 -390 31 -107 -27
-137 -116 -53 -159 23 -12 35 -11 88 4 92 25 173 18 295 -25 88 -31 120 -38
204 -41 118 -4 189 11 285 62 153 81 237 206 248 372 8 131 -17 204 -136 407
-42 72 -84 175 -96 237 -8 42 -31 66 -74 74 -27 5 -36 2 -60 -24z"/>
<path d="M3556 2073 c-157 -36 -262 -136 -320 -306 -24 -73 -33 -136 -37 -272
-5 -192 -65 -309 -198 -389 -72 -43 -154 -69 -316 -101 -208 -41 -350 -94
-481 -181 -67 -45 -163 -140 -179 -178 -25 -58 23 -119 85 -110 14 3 48 29 80
63 66 70 109 102 198 145 89 44 204 80 341 106 250 47 378 107 488 228 49 54
95 144 117 229 15 57 19 95 31 268 8 126 39 210 100 270 33 33 65 55 94 64 44
13 133 16 181 6 78 -15 134 -32 213 -62 170 -65 294 -73 485 -31 78 17 108 62
81 121 -19 41 -61 52 -129 32 -56 -16 -195 -23 -250 -12 -50 10 -115 29 -125
37 -5 4 -32 15 -60 25 -162 55 -297 71 -399 48z"/>
</g>
</svg>
